{
	"asset":{
		"generator":"Khronos glTF Blender I/O v5.1.19",
		"version":"2.0"
	},
	"extensionsUsed":[
		"KHR_materials_specular"
	],
	"scene":0,
	"scenes":[
		{
			"name":"Scene",
			"nodes":[
				2
			]
		}
	],
	"nodes":[
		{
			"mesh":0,
			"name":"Object_2",
			"translation":[
				31.583160400390625,
				35.42387771606445,
				50.11835479736328
			]
		},
		{
			"children":[
				0
			],
			"name":"Temple_MESH.obj.cleaner.materialmerger.gles",
			"translation":[
				-31.000001907348633,
				-34.999996185302734,
				0
			]
		},
		{
			"children":[
				1
			],
			"name":"Sketchfab_model",
			"rotation":[
				-0.70710688829422,
				0,
				0,
				0.7071066498756409
			],
			"scale":[
				0.10000000149011612,
				0.10000001639127731,
				0.10000001639127731
			]
		}
	],
	"materials":[
		{
			"doubleSided":true,
			"extensions":{
				"KHR_materials_specular":{
					"specularFactor":0
				}
			},
			"name":"palette",
			"pbrMetallicRoughness":{
				"baseColorTexture":{
					"index":0
				},
				"metallicFactor":0,
				"roughnessFactor":0.6000000238418579
			}
		}
	],
	"meshes":[
		{
			"name":"Object_0",
			"primitives":[
				{
					"attributes":{
						"POSITION":0,
						"NORMAL":1,
						"TEXCOORD_0":2
					},
					"indices":3,
					"material":0
				}
			]
		}
	],
	"textures":[
		{
			"sampler":0,
			"source":0
		}
	],
	"images":[
		{
			"mimeType":"image/png",
			"name":"palette_baseColor",
			"uri":"palette_baseColor.png"
		}
	],
	"accessors":[
		{
			"bufferView":0,
			"componentType":5126,
			"count":38440,
			"max":[
				32.41683578491211,
				30.57611846923828,
				61.88164138793945
			],
			"min":[
				-31.58316421508789,
				-35.42388153076172,
				-50.11835861206055
			],
			"type":"VEC3"
		},
		{
			"bufferView":1,
			"componentType":5126,
			"count":38440,
			"type":"VEC3"
		},
		{
			"bufferView":2,
			"componentType":5126,
			"count":38440,
			"type":"VEC2"
		},
		{
			"bufferView":3,
			"componentType":5123,
			"count":73746,
			"type":"SCALAR"
		}
	],
	"bufferViews":[
		{
			"buffer":0,
			"byteLength":461280,
			"byteOffset":0,
			"target":34962
		},
		{
			"buffer":0,
			"byteLength":461280,
			"byteOffset":461280,
			"target":34962
		},
		{
			"buffer":0,
			"byteLength":307520,
			"byteOffset":922560,
			"target":34962
		},
		{
			"buffer":0,
			"byteLength":147492,
			"byteOffset":1230080,
			"target":34963
		}
	],
	"samplers":[
		{
			"magFilter":9729,
			"minFilter":9987
		}
	],
	"buffers":[
		{
			"byteLength":1377572,
			"uri":"scene.bin"
		}
	]
}
